<svg width="1920" height="1080" viewBox="0 0 1920 1080" fill="none" xmlns="http://www.w3.org/2000/svg"><path fill="#fff" d="M0 0h1920v1080H0z"/><path d="M960.201 372c-66.177 0-107.563 33.337-124.1 99.995 24.82-33.322 53.767-45.834 86.87-37.478 18.9 4.739 32.374 18.535 47.322 33.803C994.617 493.199 1022.79 522 1084.32 522c66.19 0 107.56-33.337 124.1-99.995-24.81 33.336-53.77 45.834-86.87 37.493-18.87-4.74-32.38-18.55-47.32-33.833C1049.9 400.801 1021.73 372 960.201 372zm-124.1 150c-66.192 0-107.564 33.337-124.101 99.995 24.806-33.336 53.767-45.834 86.871-37.493 18.87 4.74 32.374 18.55 47.321 33.833C870.516 643.199 898.691 672 960.201 672c66.209 0 107.579-33.337 124.119-99.995-24.82 33.336-53.79 45.834-86.874 37.493-18.885-4.754-32.374-18.55-47.321-33.833C925.786 550.801 897.626 522 836.086 522h.015z" fill="#06B6D4"/><path d="M523.013 458.682c0-18.935-15.403-34.338-34.338-34.338-19.956 0-31.886 14.961-31.886 29.433h19.622c0-4.072 3.807-9.811 12.264-9.811 8.113 0 14.716 6.603 14.716 14.716 0 8.114-5.922 14.717-20.857 14.717h-53.425v19.622h53.425c25.206 0 40.479-15.404 40.479-34.339zm0 0c0-18.935-15.403-34.338-34.338-34.338-19.956 0-31.886 14.961-31.886 29.433h19.622c0-4.072 3.807-9.811 12.264-9.811 8.113 0 14.716 6.603 14.716 14.716 0 8.114-5.922 14.717-20.857 14.717h-53.425v19.622h53.425c25.206 0 40.479-15.404 40.479-34.339z" fill="url(#paint0_linear_2_2)"/><path d="M566.544 585.318c0 18.936-15.403 34.338-34.338 34.338-19.956 0-31.886-14.961-31.886-29.433h19.622c0 4.072 3.807 9.812 12.264 9.812 8.114 0 14.716-6.603 14.716-14.717s-7.461-14.717-20.857-14.717h-59.284v-19.622h59.284c25.206 0 40.479 15.404 40.479 34.339zm0 0c0 18.936-15.403 34.338-34.338 34.338-19.956 0-31.886-14.961-31.886-29.433h19.622c0 4.072 3.807 9.812 12.264 9.812 8.114 0 14.716-6.603 14.716-14.717s-7.461-14.717-20.857-14.717h-59.284v-19.622h59.284c25.206 0 40.479 15.404 40.479 34.339z" fill="url(#paint1_linear_2_2)"/><path d="M571.688 454.617c-21.643 0-36.911 16.459-36.911 38.102h17.379c0-10.758 7.813-18.571 19.532-18.571 11.718 0 17.578 7.813 17.578 18.571 0 10.758-7.611 19.622-28.321 19.622H429.109v19.622h134.766c30.67 0 44.922-19.713 44.922-39.244 0-21.643-14.649-38.102-37.109-38.102z" fill="url(#paint2_linear_2_2)"/><path d="M454.832 550.979h-25.723v19.787h25.723v-19.787z" fill="url(#paint3_linear_2_2)"/><path d="M205.775 587.277c0-31.379 25.439-56.818 56.818-56.818 31.38 0 56.818 25.439 56.818 56.818 0 31.38-25.438 56.818-56.818 56.818-31.379 0-56.818-25.438-56.818-56.818z" fill="#888" fill-opacity=".6"/><path d="M205.775 456.723c0-31.38 25.439-56.818 56.818-56.818 31.38 0 56.818 25.438 56.818 56.818v51.136a5.681 5.681 0 0 1-5.681 5.682H211.457a5.681 5.681 0 0 1-5.682-5.682v-51.136z" fill="#888" fill-opacity=".3"/><path d="M188.225 587.277c0 31.38-25.438 56.818-56.818 56.818s-56.818-25.438-56.818-56.818v-51.136a5.681 5.681 0 0 1 5.681-5.682h102.273a5.681 5.681 0 0 1 5.682 5.682v51.136z" fill="#888"/><path d="M1473.2 539.98c-.45.215-.9.489-1.35.762-.02-2.851-1.53-4.238-2.58-5.742-5.08-7.266-14.88-4.512-17.77 2.168-.39.918 5.97 9.219 5.7 10.117-4.22 1.895-8.28 6.25-9.1 10.059.84-3.926-2.09-5.762-6.53-4.297-4.43 1.465-8.63 5.683-9.23 9.59.62-3.907-2.54-6.035-7.07-4.942-4.54 1.094-8.58 4.981-8.99 8.868.41-3.887-2.99-6.329-7.56-5.645-4.57.684-8.47 4.238-8.67 8.105.18-3.886-3.42-6.64-8.03-6.386-4.61.254-8.34 3.457-8.3 7.343-.04-3.867-3.83-6.992-8.43-7.148-4.61-.156-8.17 2.676-7.91 6.563-.26-3.887-4.24-7.344-8.81-7.93-4.59-.586-7.93 1.914-7.46 5.801-.47-3.887-4.61-7.696-9.15-8.692-4.53-.996-7.65 1.192-6.97 5.098-.68-3.887-4.96-8.027-9.43-9.414-4.47-1.367-7.36.527-6.45 4.433-.9-3.906-10.76-20.41-11.83-22.851-2.89-6.68-8.46-8.789-13.23-4.453-1.95 1.777-3.16 5-2.16 9.746-3.11-.86-4.65.644-3.52 3.945 6.19 18.086 12.31 36.485 17.38 54.981 2.17 7.91 4.42 18.164 10.79 24.062 4.57 4.219 10.27 7.149 15.76 9.512 16.38 7.031 34.57 9.18 51.5 9.297 18.13.117 41.17-4.258 57.21-13.379 6.07-3.438 11.85-7.442 14.57-14.18 4.47-11.172 7.71-22.891 11.13-34.101 3.89-12.735 6.82-26.25 11.86-38.145 1.25-3.906-1.14-5.254-5.37-3.145z" fill="#48A2AD"/><path d="M1383.2 591.328c48.55 0 87.91-15.819 87.91-35.332 0-19.513-39.36-35.332-87.91-35.332-48.56 0-87.91 15.819-87.91 35.332 0 19.513 39.35 35.332 87.91 35.332z" fill="url(#paint4_radial_2_2)"/><path d="M1457.84 505.547c-1.64-1.66-3.65-3.223-6.05-4.59 0 0-56.02 18.223-95 16.25-38.99-1.973-33.24-6.23-53.05 6.387 0 0-5.41 7.734 1.19 12.441 8.64 6.152 19.53 11.231 31.49 15.098 1.44-1.055 2.89-1.719 4.12-1.719 37.17-12.91 109.47 3.457 117.3-43.867z" fill="url(#paint5_linear_2_2)"/><path d="M1457.84 505.547c-7.83 47.324-80.13 30.957-117.28 43.867-1.23 0-2.68.645-4.12 1.719 29.98 9.687 66.66 11.66 91.15 3.515 30.76-10.195 44.65-34.511 30.25-49.101z" fill="#EB5E8E"/><path d="M1441.96 470.684s10.61 6.289 10.61 22.558c0 16.27-13.53 37.363-73.59 31.328-59.53-5.996-74.91-.918-74.91-.918s-18.24-24.765 19.89-24.629c34.12.118 84.86 4.141 96.81-3.437 17.8-11.328 18.46-11.641 21.19-24.902z" fill="url(#paint6_linear_2_2)"/><path d="M1372.63 458.594c18.48-11.543 17.48-28.321 8.67-42.598-.96.547-1.52 1.699-1.03 2.891 1.93 4.648 3.65 11.211.52 15.625-5.29 7.461-15.09 9.355-31.13 18.3-15.29 8.516-21.17 16.641-22.25 26.836-.09.957.45 1.875 1.35 2.325 1.72.859 5 2.265 9.96 3.554 5.39-13.339 21.62-20.8 33.91-26.933z" fill="#F77CA5"/><path d="M1412.94 437.129c-8.26-8.906-18.03-16.172-29.33-21.25-.82-.371-1.66-.254-2.33.117 8.81 14.258 9.81 31.035-8.67 42.598-12.27 6.133-28.5 13.593-33.91 26.933 5.39 1.407 12.78 2.676 22.39 2.969 23.55.703 55.29-.586 60.68-9.824 5.41-9.219.9-31.055-8.83-41.543z" fill="url(#paint7_linear_2_2)"/><path d="M1440.3 467.5c.45-1.133.79-2.305 1.02-3.477-6.33-9.687-21.13-12.656-21.13-12.656 16.05 34.18-67.5 26.738-91.17 28.145-10.08.605-15.86 5.039-19.2 9.961 4.94-2.578 10.72-4.004 16.52-5.938 37.38-8.906 97.93 28.496 113.96-16.035z" fill="#F79EBC"/><path d="M1443.66 469.375a16.674 16.674 0 0 0-2.34-5.352 19.263 19.263 0 0 1-1.02 3.477c-16.03 44.531-76.58 7.129-113.98 16.035-5.78 1.934-11.58 3.34-16.52 5.938-4.51 6.621-4.53 14.082-4.53 14.082 24.35-7.383 42.32.039 89.14.722 46.81.645 52.61-20.918 49.25-34.902z" fill="url(#paint8_linear_2_2)"/><path d="M1473.23 553.516c-4.27 1.992-8.75 6.562-9.86 10.371 1.13-3.809-1.5-5.43-5.88-3.809-4.39 1.621-8.77 5.82-9.69 9.551.92-3.731-1.97-5.586-6.44-4.336-4.47 1.25-8.75 5.098-9.43 8.77.7-3.672-2.43-5.782-6.96-4.903-4.53.879-8.67 4.395-9.14 8.028.49-3.633-2.87-6.016-7.44-5.508-4.59.508-8.55 3.711-8.81 7.304.26-3.593-3.28-6.269-7.89-6.132-4.61.136-8.4 3.027-8.44 6.621.04-3.594-3.69-6.563-8.3-6.797-4.59-.235-8.2 2.363-8 5.976-.18-3.613-4.09-6.875-8.68-7.48-4.57-.606-7.97 1.719-7.56 5.351-.41-3.632-4.45-7.246-8.98-8.203-4.53-.957-7.68 1.075-7.07 4.766-.62-3.691-4.8-7.617-9.26-8.965-4.45-1.348-7.36.469-6.52 4.219-.84-3.75-5.14-8.047-9.49-9.746-4.36-1.699-7.02-.137-5.96 3.691-1.06-3.828-5.43-8.496-9.67-10.566-4.24-2.071-6.62-.723-5.37 3.203 5.04 11.836 7.99 25.098 11.88 37.363 3.43 10.801 6.68 21.992 11.17 32.403 2.71 6.289 8.45 9.609 14.59 12.382 17.56 7.91 38.06 9.961 57.09 10.137 17.18.176 35-1.328 51.38-6.777 5.51-1.836 11.21-4.121 15.79-7.774 6.38-5.097 8.63-14.843 10.82-22.383 5.21-18.046 11.36-35.644 17.42-53.417 1.33-3.946-1.02-5.333-5.3-3.34z" fill="url(#paint9_linear_2_2)"/><path d="M1330.25 505.098c2.15 0 3.9-1.749 3.9-3.907a3.906 3.906 0 1 0-3.9 3.907z" fill="#B8EB96"/><path d="M1355.64 519.258c2.15 0 3.9-1.749 3.9-3.906a3.906 3.906 0 1 0-3.9 3.906z" fill="#EBD3DB"/><path d="M1331.22 533.906c2.16 0 3.91-1.749 3.91-3.906a3.906 3.906 0 1 0-3.91 3.906z" fill="#EB5E8E"/><path d="M1360.03 476.289a3.907 3.907 0 1 0 0-7.812 3.907 3.907 0 1 0 0 7.812z" fill="#3DC2EB"/><path d="M1381.03 503.145c2.15 0 3.9-1.749 3.9-3.907a3.906 3.906 0 1 0-3.9 3.907z" fill="#FFA600"/><path d="M1444.99 532.441a3.907 3.907 0 1 0 0-7.812 3.9 3.9 0 0 0-3.9 3.906 3.899 3.899 0 0 0 3.9 3.906z" fill="#79EB2D"/><path d="M1397.14 462.129c2.16 0 3.91-1.749 3.91-3.906a3.908 3.908 0 0 0-3.91-3.907 3.908 3.908 0 0 0-3.91 3.907 3.908 3.908 0 0 0 3.91 3.906z" fill="#FFF000"/><path d="M1417.65 507.539a3.9 3.9 0 0 0 3.9-3.906 3.899 3.899 0 0 0-3.9-3.906 3.907 3.907 0 1 0 0 7.812z" fill="#8052FF"/><path d="M1427.41 478.242c2.16 0 3.91-1.749 3.91-3.906a3.906 3.906 0 1 0-3.91 3.906z" fill="#5EEBB3"/><path d="M1399.58 537.324c2.16 0 3.91-1.749 3.91-3.906a3.908 3.908 0 0 0-3.91-3.906 3.9 3.9 0 0 0-3.9 3.906 3.9 3.9 0 0 0 3.9 3.906z" fill="#A45EEB"/><path opacity=".56" d="m1314.13 571.992 11.72 50.293M1452.8 572.148l-11.71 50.625M1338.47 579.961l6.83 49.805M1428.47 578.184l-6.84 49.804M1359.7 582.734l4.57 51.114M1407.24 580.938l-4.57 51.113M1383.8 585.996l.65 49.141" stroke="#49A5B0" stroke-width="3" stroke-miterlimit="10" stroke-linecap="round" stroke-linejoin="round"/><path opacity=".2" d="M1388.06 424.707c7.54 4.297 14.45 9.785 20.58 16.426 2.7 2.91 5.18 7.304 6.94 12.383a5.816 5.816 0 0 0 4.12 3.75c2.03.507 12.4 3.359 16.72 9.961.74 1.152 1.25 2.304 1.54 3.515.18.762.33 1.602.45 2.461a5.911 5.911 0 0 0 1.86 3.574c2.4 2.207 6.44 7.285 6.46 16.465 0 2.149-.29 4.219-.88 6.172-.6 2.09-.04 4.336 1.52 5.84a5.95 5.95 0 0 0 2.68 1.504c1.37.879 2.6 1.855 3.63 2.929 6.12 6.192 4.14 13.34 1.41 18.262a5.818 5.818 0 0 0 .25 6.094 5.855 5.855 0 0 0 4.87 2.598c.21 0 .45-.02.68-.039.16-.02.33-.02.49-.02 1.25 0 2.26.586 3.1 1.777.24.332.47.645.73.977.8 1.055.8 1.133.82 1.484a5.875 5.875 0 0 0 3.04 5.078 5.72 5.72 0 0 0 1.92.645c-.51 1.426-1.04 2.93-1.56 4.512a5.815 5.815 0 0 0 1.32 5.879c.37.39.79.722 1.23.996l-1.32 3.886c-5.2 15.235-10.59 30.977-15.18 46.817-.21.703-.41 1.445-.62 2.187-1.84 6.465-3.91 13.809-8.23 17.246-4.04 3.223-9.33 5.235-13.96 6.778-13.15 4.375-28.5 6.484-46.94 6.484-.84 0-1.69 0-2.53-.019-23.31-.235-40.71-3.301-54.75-9.629-5.65-2.539-9.79-5.118-11.62-9.356-3.62-8.34-6.45-17.422-9.2-26.23-.59-1.875-1.17-3.77-1.78-5.625-1.27-3.985-2.46-8.203-3.63-12.266-2.23-7.812-4.51-15.859-7.58-23.496.18-.176.33-.371.47-.586a5.826 5.826 0 0 0 .76-5.273l-.76-2.227c-.06-.156-.1-.312-.16-.469.35-.215.69-.468.98-.742a5.904 5.904 0 0 0 1.57-2.521c.3-.96.35-1.982.15-2.967-.47-2.227-.16-3.711.39-4.199.58-.528 1.03-.723 1.25-.723.02 0 .1 0 .21.059.87.354 1.82.494 2.75.405a5.76 5.76 0 0 0 2.62-.913 5.84 5.84 0 0 0 2.68-4.688c.04-.879.45-1.855.76-2.461a5.922 5.922 0 0 0 1.41-2.793 5.798 5.798 0 0 0-.96-4.511c-1.58-2.266-3.71-6.661-3.06-9.571.17-.82.62-1.894 2.53-2.988a5.819 5.819 0 0 0 2.93-4.609c.14-1.739.77-6.211 3.48-10.196 2.83-4.16 7.34-6.601 13.38-7.246a5.818 5.818 0 0 0 3.56-1.716 5.77 5.77 0 0 0 1.65-3.596v-.117c.73-6.348 3.64-13.438 19.26-22.149 5.43-3.027 10.12-5.215 14.26-7.148 8.09-3.77 14.47-6.758 18.81-12.871 2.5-3.496 3.32-7.969 2.5-13.184zm-5.49-9.062c-.47 0-.9.136-1.29.351-.96.547-1.52 1.699-1.03 2.891 1.93 4.648 3.65 11.211.52 15.625-5.29 7.461-15.09 9.355-31.13 18.3-15.27 8.516-21.15 16.641-22.23 26.836v.039c-9.08.958-14.45 5.137-17.61 9.786-3.48 5.117-4.28 10.722-4.48 13.007-11.13 6.387-2.4 19.512-1.36 20.997-.08.039-.14.097-.22.136 0 0-1.93 2.774-2.07 6.016a6.39 6.39 0 0 0-2.4-.469c-1.74 0-3.52.723-5.2 2.266-1.95 1.777-3.16 5-2.16 9.746-.59-.156-1.1-.235-1.57-.235-2.03 0-2.87 1.485-1.95 4.18.65 1.875 1.27 3.77 1.91 5.645-1.95.019-2.79 1.465-1.95 4.14 5.04 11.836 7.99 25.098 11.88 37.364 3.43 10.8 6.68 21.992 11.17 32.402 2.71 6.289 8.46 9.609 14.59 12.383 17.56 7.91 38.06 9.961 57.09 10.136.86 0 1.74.02 2.6.02 16.36 0 33.22-1.621 48.78-6.777 5.51-1.836 11.22-4.121 15.79-7.774 6.38-5.097 8.63-14.844 10.82-22.383 5.21-18.046 11.36-35.644 17.42-53.418.92-2.695.06-4.199-1.97-4.199-.47 0-1 .078-1.59.235 1.1-3.321 2.27-6.563 3.6-9.707.86-2.696.02-4.18-1.96-4.18-.91 0-2.07.312-3.39.976-.45.215-.9.489-1.35.762-.02-2.851-1.53-4.238-2.58-5.742-2.11-3.008-5.02-4.277-7.91-4.277-.39 0-.78.019-1.17.058 4.94-8.886 4.59-18.183-2.35-25.215-1.64-1.66-3.65-3.222-6.05-4.589l-.33.097a27.723 27.723 0 0 0 1.11-7.832c0-11.445-5.25-17.93-8.36-20.781-.14-1.055-.31-2.09-.57-3.086a16.674 16.674 0 0 0-2.34-5.352c-5.39-8.242-16.89-11.621-20.19-12.441-1.94-5.527-4.71-10.703-8.17-14.434-8.26-8.906-18.03-16.171-29.33-21.25a2.112 2.112 0 0 0-1.02-.253z" fill="#424242"/><path d="m1648.67 540.589 57.77 33.353v66.705L1648.67 674l-57.77-33.353v-66.705l57.77-33.353z" fill="#4D26E7"/><path d="m1648.79 582.643 21.35 12.326v24.652l-21.35 12.326-21.34-12.326v-24.652l21.34-12.326zM1711.26 467.503l42.06 24.281v48.559l-42.06 24.278-42.05-24.278v-48.559l42.05-24.281z" fill="#73DCFF"/><path d="m1649.4 424 29.5 17.03v34.058l-29.5 17.027-29.5-17.027V441.03l29.5-17.03z" fill="#FD54B0"/><path d="m1593.09 444.302 17.86 10.307v20.615l-17.86 10.304-17.85-10.304v-20.615l17.85-10.307z" fill="#FBDE5E"/><path d="m1570.6 482.991 11.6 6.473v12.947l-11.6 6.473-11.6-6.473v-12.947l11.6-6.473z" fill="#4D26E7"/><defs><linearGradient id="paint0_linear_2_2" x1="444.734" y1="440.945" x2="558.016" y2="619.656" gradientUnits="userSpaceOnUse"><stop offset=".078" stop-color="#54C8F1"/><stop offset=".573" stop-color="#41A2EF"/><stop offset="1" stop-color="#3386EE"/></linearGradient><linearGradient id="paint1_linear_2_2" x1="444.734" y1="440.945" x2="558.016" y2="619.656" gradientUnits="userSpaceOnUse"><stop offset=".078" stop-color="#54C8F1"/><stop offset=".573" stop-color="#41A2EF"/><stop offset="1" stop-color="#3386EE"/></linearGradient><linearGradient id="paint2_linear_2_2" x1="444.734" y1="440.945" x2="558.016" y2="619.656" gradientUnits="userSpaceOnUse"><stop offset=".078" stop-color="#54C8F1"/><stop offset=".573" stop-color="#41A2EF"/><stop offset="1" stop-color="#3386EE"/></linearGradient><linearGradient id="paint3_linear_2_2" x1="444.734" y1="440.945" x2="558.016" y2="619.656" gradientUnits="userSpaceOnUse"><stop offset=".078" stop-color="#54C8F1"/><stop offset=".573" stop-color="#41A2EF"/><stop offset="1" stop-color="#3386EE"/></linearGradient><linearGradient id="paint5_linear_2_2" x1="1301.66" y1="526.053" x2="1457.84" y2="526.053" gradientUnits="userSpaceOnUse"><stop stop-color="#FF85AE"/><stop offset=".317" stop-color="#FF7DA9"/><stop offset=".816" stop-color="#FF669A"/><stop offset="1" stop-color="#FF5C93"/></linearGradient><linearGradient id="paint6_linear_2_2" x1="1299.71" y1="498.146" x2="1452.58" y2="498.146" gradientUnits="userSpaceOnUse"><stop offset=".003" stop-color="#FFB0CB"/><stop offset=".792" stop-color="#F383A9"/><stop offset="1" stop-color="#F0769F"/></linearGradient><linearGradient id="paint7_linear_2_2" x1="1366.06" y1="452.148" x2="1428.41" y2="452.148" gradientUnits="userSpaceOnUse"><stop stop-color="#F697B7"/><stop offset=".335" stop-color="#F78FB2"/><stop offset=".862" stop-color="#F878A3"/><stop offset="1" stop-color="#F9719F"/></linearGradient><linearGradient id="paint8_linear_2_2" x1="1305.27" y1="484.145" x2="1444.45" y2="484.145" gradientUnits="userSpaceOnUse"><stop stop-color="#F78FB2"/><stop offset=".272" stop-color="#F887AD"/><stop offset=".703" stop-color="#FC709F"/><stop offset="1" stop-color="#FF5C93"/></linearGradient><linearGradient id="paint9_linear_2_2" x1="1383.47" y1="567.109" x2="1383.47" y2="638.633" gradientUnits="userSpaceOnUse"><stop stop-color="#4FE8FF"/><stop offset=".497" stop-color="#4BDDF3"/><stop offset="1" stop-color="#45CEE3"/></linearGradient><radialGradient id="paint4_radial_2_2" cx="0" cy="0" r="1" gradientUnits="userSpaceOnUse" gradientTransform="matrix(0 52.1191 -81.6082 0 1382.82 537.162)"><stop stop-color="#BE5D23"/><stop offset=".158" stop-color="#B65B25"/><stop offset=".407" stop-color="#9F552A"/><stop offset=".715" stop-color="#7A4C33"/><stop offset=".999" stop-color="#52423C"/></radialGradient></defs></svg>